<?xml version="1.0" encoding="utf-8"?>
<!-- Generator: Adobe Illustrator 19.0.1, SVG Export Plug-In . SVG Version: 6.00 Build 0)  -->
<!DOCTYPE svg PUBLIC "-//W3C//DTD SVG 1.1//EN" "http://www.w3.org/Graphics/SVG/1.1/DTD/svg11.dtd">
<svg version="1.1" id="Layer_1" xmlns="http://www.w3.org/2000/svg" xmlns:xlink="http://www.w3.org/1999/xlink" x="0px" y="0px"
	 viewBox="0 0 307 471" enable-background="new 0 0 307 471" xml:space="preserve">
<g>
	<g>
		<g>
			<path fill="#078DD2" d="M304.7,130.8c0,0-16.3,2.4-26.1,3.9c-19.6,7.7-23.9,22.2-45.5,22.6c-29.2,0.6-129.9,0.6-159.1,0
				c-21.6-0.4-25.9-15.1-45.5-22.6c-9.8-1.4-26.1-3.9-26.1-3.9c-0.6,2-7.3,10.2,4.9,13.1c7.1,1.6,3.7,31.8,3.7,35.9
				c0,37.7,25.3,63.2,63,63.2h77.9h3.3h77.9c37.7,0,63-25.5,63-63.2c0-4.1-3.3-34.3,3.7-35.9C312,141,305.1,132.8,304.7,130.8z
				 M199.9,179.3h-93.2c-2.4,0-4.3-2-4.3-4.3s2-4.3,4.3-4.3h93.2c2.4,0,4.3,2,4.3,4.3S202.3,179.3,199.9,179.3z"/>
			<g>
				<path fill="#078DD2" d="M102.6,256.4c0,2.9-2.4,5.1-5.1,5.1H78.7c-2.9,0-5.1-2.4-5.1-5.1l0,0c0-2.9,2.4-5.1,5.1-5.1h18.8
					C100.3,251.3,102.6,253.6,102.6,256.4L102.6,256.4z"/>
				<path fill="#078DD2" d="M243.5,256.4c0,2.9-2.4,5.1-5.1,5.1h-18.8c-2.9,0-5.1-2.4-5.1-5.1l0,0c0-2.9,2.4-5.1,5.1-5.1h18.8
					C241.1,251.3,243.5,253.6,243.5,256.4L243.5,256.4z"/>
			</g>
		</g>
		<g>
			<path fill="#078DD2" d="M254.9,31.1c-1.2-14.7-13.3-26.5-28.5-26.5c-15.9,0-28.6,13-28.6,28.6h13.1c0-8.6,7.1-15.7,15.7-15.7
				s15.7,7.1,15.7,15.7v123.6h13.1V31.1H254.9z"/>
			<path fill="#078DD2" d="M230.7,59.8c0,14.7-11.8,1.8-26.5,1.8s-26.5,12.8-26.5-1.8c0-14.7,11.8-26.5,26.5-26.5
				S230.7,45.3,230.7,59.8z"/>
		</g>
		<g>
			<g>
				<g>
					<polygon fill="#078DD2" points="219.2,90.6 212.7,90.6 212.7,71.9 219.2,71.9 					"/>
				</g>
				<g>
					<polygon fill="#078DD2" points="219.2,118.1 212.7,118.1 212.7,99.6 219.2,99.6 					"/>
				</g>
				<g>
					<polygon fill="#078DD2" points="219.2,145.5 212.7,145.5 212.7,127.1 219.2,127.1 					"/>
				</g>
			</g>
			<g>
				<g>
					<polygon fill="#078DD2" points="201.9,92 195.6,90.4 200.5,72.5 206.8,74.1 					"/>
				</g>
				<g>
					<polygon fill="#078DD2" points="194.8,118.6 188.6,116.9 193.3,99 199.5,100.6 					"/>
				</g>
				<g>
					<polygon fill="#078DD2" points="187.8,145.1 181.5,143.4 186.2,125.5 192.5,127.3 					"/>
				</g>
			</g>
			<g>
				<g>
					<polygon fill="#078DD2" points="183.3,90.4 177.6,87.2 186.8,71.2 192.5,74.3 					"/>
				</g>
				<g>
					<polygon fill="#078DD2" points="169.5,114.3 163.8,111 173.1,94.9 178.7,98.2 					"/>
				</g>
				<g>
					<polygon fill="#078DD2" points="155.8,138.1 150.1,134.7 159.3,118.8 165,122 					"/>
				</g>
			</g>
		</g>
	</g>
</g>
</svg>
