<?xml version="1.0" encoding="utf-8"?>
<!-- Generator: Adobe Illustrator 19.0.1, SVG Export Plug-In . SVG Version: 6.00 Build 0)  -->
<!DOCTYPE svg PUBLIC "-//W3C//DTD SVG 1.1//EN" "http://www.w3.org/Graphics/SVG/1.1/DTD/svg11.dtd">
<svg version="1.1" id="Layer_1" xmlns="http://www.w3.org/2000/svg" xmlns:xlink="http://www.w3.org/1999/xlink" x="0px" y="0px"
	 viewBox="0 0 307 471" enable-background="new 0 0 307 471" xml:space="preserve">
<g>
	<g>
		<path fill="#078DD2" d="M298,137.5L263.2,102V28c0-9.8-7.8-17.4-17.6-17.4h-14.9c-9.8,0-17.6,7.8-17.6,17.4v22.5l-25.2-25.6
			c-8.9-9.6-21.2-14.3-33.9-14.3c-12.3,0-24.5,4.9-34.1,14.3L8.8,137.5c-18.7,19.2-4.9,44.8,16.3,44.8h18.3v86.3
			c0,15.4,12.7,27.7,27.7,27.7h164.6c15.4,0,27.7-12.7,27.7-27.7v-86.5H282C303.2,182.1,317,156.4,298,137.5z M154.4,265.7
			c-37.2,0-67.1-30.1-67.1-67.3c0-21.6,10.3-40.1,25.6-52.4c3.3-2.5,5.8,0,4.9,1.8c-10.9,25.2-3.1,50.2,15.4,55.3
			c-5.6-12.9-7.8-27.2-6.2-42.4c2.5-21.9,13.4-41,28.5-54.2c0.7-1.1,2.5-1.8,3.3-1.8c0.9,0,1.8,1.1,1.3,2.5c-0.9,4.5-2,8.9-2.5,13.4
			c-2,18.3,2,35.9,10.7,50.8c12.9,0,18.3-14.9,19.8-25.2c0-2.5,2-4,5.8-1.3c16.7,12.3,27.7,31.7,27.7,54
			C221.8,235.6,191.7,265.7,154.4,265.7z"/>
	</g>
</g>
</svg>
