<?xml version="1.0" encoding="utf-8"?>
<!-- Generator: Adobe Illustrator 19.0.1, SVG Export Plug-In . SVG Version: 6.00 Build 0)  -->
<!DOCTYPE svg PUBLIC "-//W3C//DTD SVG 1.1//EN" "http://www.w3.org/Graphics/SVG/1.1/DTD/svg11.dtd">
<svg version="1.1" id="Layer_1" xmlns="http://www.w3.org/2000/svg" xmlns:xlink="http://www.w3.org/1999/xlink" x="0px" y="0px"
	 viewBox="0 0 307 471" enable-background="new 0 0 307 471" xml:space="preserve">
<g>
	<g>
		<g>
			<path fill="#078DD2" d="M218.4,169.8H1.7v138.7h300.7V169.8h-54.9l-4.1-8.6L182.4,34c-1.9-3.3-5.7-5-8.6-3.3l-21.7,11.5
				c-2.9,1.4-3.8,5.5-1.9,9.1l0.7,1.4l-2.9,1.4l-3.3-6.2c-1-1.7-2.9-2.4-4.3-1.7l-0.5,0.2c-1.4,0.7-1.9,2.9-1,4.5l36.3,69
				c1,1.7,2.9,2.4,4.3,1.7l0.5-0.2c1.4-0.7,1.9-2.9,1-4.5l-24.6-46.5l3.6-1.9L218.4,169.8z M286.9,185.4V293H17.2V185.4h210l3.1,5.3
				l9.8-5.3h5.7l-13.8,7.2l21.7,20.5l3.6-1.9l-4.1-26C253.3,185.4,286.9,185.4,286.9,185.4z"/>
			<path fill="#078DD2" d="M139.2,20.2l3.6-1.9L153,37.6l17.4-9.3L160.2,9l3.3-1.7C163.5,7.3,146.1-0.8,139.2,20.2z"/>
			<path fill="#078DD2" d="M38.2,220.2c-6.2,3.3-0.7,12.9,5.5,9.3c36.8-20,82.8-6.2,121.3,1.2c32.7,6.2,66.6,12.2,99.1,3.1
				c6.7-1.9,3.8-12.4-2.9-10.5C188.8,243.6,107.5,182.7,38.2,220.2z"/>
			<path fill="#078DD2" d="M260.2,262.7c-69,6-152-41.8-216.5-2.9c-6,3.6-0.5,12.9,5.7,9.3c61.6-37.2,144.2,10.3,211,4.3
				C267.1,272.9,267.1,262,260.2,262.7z"/>
		</g>
	</g>
</g>
</svg>
