<?xml version="1.0" encoding="utf-8"?>
<!-- Generator: Adobe Illustrator 19.0.1, SVG Export Plug-In . SVG Version: 6.00 Build 0)  -->
<!DOCTYPE svg PUBLIC "-//W3C//DTD SVG 1.1//EN" "http://www.w3.org/Graphics/SVG/1.1/DTD/svg11.dtd">
<svg version="1.1" id="Layer_1" xmlns="http://www.w3.org/2000/svg" xmlns:xlink="http://www.w3.org/1999/xlink" x="0px" y="0px"
	 viewBox="0 0 307 471" enable-background="new 0 0 307 471" xml:space="preserve">
<g>
	<g>
		<g>
			<path fill="#078DD2" d="M38.1,89.6c-2.5,3-2.2,7.4,0.8,10.1c1.4,1.1,3,1.6,4.7,1.6c1.9,0,4.1-0.8,5.5-2.5
				c1.1-1.4,26.9-31.5,7.4-55.9c-10.7-13.7-2.7-21.7-1.1-23c3-2.5,3.6-6.9,1.1-9.9c-2.7-3.3-7.1-3.6-10.1-1.4
				c-7.4,6-17.3,22.5-1.1,43C57.3,67.1,38.4,89.3,38.1,89.6z"/>
			<path fill="#078DD2" d="M100.6,89.6c-2.5,3-2.2,7.4,0.8,10.1c1.4,1.1,3,1.6,4.7,1.6c1.9,0,4.1-0.8,5.5-2.5
				c1.1-1.4,26.9-31.5,7.4-55.9c-10.7-13.7-2.7-21.7-1.1-23c3-2.5,3.6-6.9,1.1-9.9c-2.5-3-6.9-3.6-10.1-1.1c-7.4,6-17.3,22.5-1.1,43
				C119.5,67.1,100.6,89.3,100.6,89.6z"/>
			<path fill="#078DD2" d="M162.8,89.6c-2.5,3-2.2,7.4,0.8,10.1c1.4,1.1,3,1.6,4.7,1.6c1.9,0,4.1-0.8,5.5-2.5
				c1.1-1.4,26.9-31.5,7.4-55.9c-10.7-13.7-2.7-21.7-1.1-23c3-2.5,3.6-6.9,1.1-9.9c-2.5-3-6.9-3.6-10.1-1.1c-7.4,6-17.3,22.5-1.1,43
				C182,67.1,163.1,89.3,162.8,89.6z"/>
			<path fill="#078DD2" d="M225.3,89.6c-2.5,3-2.2,7.4,0.8,10.1c1.4,1.1,3,1.6,4.7,1.6c1.9,0,4.1-0.8,5.5-2.5
				c1.1-1.4,26.9-31.5,7.4-55.9c-10.7-13.7-2.7-21.7-1.1-23c3-2.5,3.6-6.9,1.1-9.9c-2.5-3-6.9-3.6-10.1-1.1c-7.4,6-17.3,22.5-1.1,43
				C244.2,67.1,225.3,89.3,225.3,89.6z"/>
			<path fill="#078DD2" d="M21.4,378.5c11.8,0,21.4-9.6,21.4-21.4V149c0-11.8-9.6-21.4-21.4-21.4S0,137.3,0,149v208
				C0,368.9,9.6,378.5,21.4,378.5z"/>
			<path fill="#078DD2" d="M48.8,148.8v208c0,11.8,9.6,21.4,21.4,21.4s21.4-9.6,21.4-21.4v-208c0-11.8-9.6-21.4-21.4-21.4
				C58.4,127.4,48.8,137,48.8,148.8z"/>
			<path fill="#078DD2" d="M118.7,377.9c11.8,0,21.4-9.6,21.4-21.4V148.2c0-11.8-9.6-21.4-21.4-21.4s-21.4,9.6-21.4,21.4v208
				C97.3,368.3,106.9,377.9,118.7,377.9z"/>
			<path fill="#078DD2" d="M167.5,377.6c11.8,0,21.4-9.6,21.4-21.4V147.9c0-11.8-9.6-21.4-21.4-21.4c-11.8,0-21.4,9.6-21.4,21.4v208
				C146.1,368.1,155.7,377.6,167.5,377.6z"/>
			<path fill="#078DD2" d="M216.3,377.4c11.8,0,21.4-9.6,21.4-21.4V147.7c0-11.8-9.6-21.4-21.4-21.4c-11.8,0-21.4,9.6-21.4,21.4v208
				C194.9,367.8,204.5,377.4,216.3,377.4z"/>
			<path fill="#078DD2" d="M243.4,147.4v208c0,11.8,9.6,21.4,21.4,21.4c11.8,0,21.4-9.6,21.4-21.4V216.7h3.3
				c9.6,0,17.5-12.3,17.5-27.4c0-15.1-7.9-27.4-17.5-27.4c-1.1,0-2.2,0-3.3,0v-14.8c0-11.8-9.6-21.4-21.4-21.4
				C253,125.7,243.4,135.6,243.4,147.4z"/>
		</g>
	</g>
</g>
</svg>
