<?xml version="1.0" encoding="utf-8"?>
<!-- Generator: Adobe Illustrator 19.0.1, SVG Export Plug-In . SVG Version: 6.00 Build 0)  -->
<!DOCTYPE svg PUBLIC "-//W3C//DTD SVG 1.1//EN" "http://www.w3.org/Graphics/SVG/1.1/DTD/svg11.dtd">
<svg version="1.1" id="Layer_1" xmlns="http://www.w3.org/2000/svg" xmlns:xlink="http://www.w3.org/1999/xlink" x="0px" y="0px"
	 viewBox="0 0 307 471" style="enable-background:new 0 0 307 471;" xml:space="preserve">
<style type="text/css">
	.st0{fill:#078DD2;}
</style>
<g>
	<g>
		<rect x="59.8" y="252.8" class="st0" width="187" height="8.8"/>
		<polygon class="st0" points="125.4,246.7 150.5,246.7 155.5,246.7 180.6,246.7 184.3,246.7 214.4,246.7 197.5,221.4 182.5,244 
			167.4,221.4 153,243.1 138.6,221.4 123.5,244 108.5,221.4 91.6,246.7 121.7,246.7 		"/>
	</g>
	<g>
		<path class="st0" d="M128.5,82.9c-0.4-0.8-1.2-1.5-1.5-2.3l-0.8-1.2l-0.4-0.6l-0.2-0.2c0,0,0.2,0.2,0.4,0.4l0,0l-0.2-0.2
			c-0.8-1-2.3-2.5-2.3-3.1c-0.4-0.8-0.8-1.3-1.2-2.5c-0.8-1.9-1.3-4.2-1.7-6.5c-0.8-4.6-0.6-9.4-0.4-13.4c0.6-8.2,1.3-14.4,1.3-14.4
			s-4.4,4.4-7.9,12.8c-1.7,4.2-3.3,9.4-3.5,15.7c0,3.1,0.2,6.5,1.3,9.8c0.4,1.5,1.3,3.5,2.3,5.2c1,1.9,1.7,2.5,2.7,3.8l2.3,2.9
			c0.4,1,1.2,1.7,1.5,2.7c0.8,1.9,1.5,4,1.9,6.3c0.8,4.6,0.8,9.2,0.6,13.4c-0.6,8.2-1.3,14.4-1.3,14.4s4.4-4.2,7.9-12.8
			c1-2.1,1.7-4.4,2.3-7.1c0.6-2.7,1.2-5.6,1-8.6c0-3.1-0.4-6.5-1.5-9.8C130.4,86.2,129.2,84.5,128.5,82.9z M125.6,78.9
			C125.6,78.9,125.4,78.7,125.6,78.9L125.6,78.9z"/>
		<path class="st0" d="M154.5,53.6c-0.4-0.8-1.2-1.5-1.5-2.3l-0.8-1.2l-0.4-0.6l-0.2-0.2c0,0,0.2,0.2,0.4,0.4l0,0l-0.2-0.2
			c-0.8-1-2.3-2.5-2.3-3.1c-0.4-0.8-0.8-1.3-1.2-2.5c-0.8-1.9-1.3-4.2-1.7-6.5c-0.8-4.6-0.6-9.4-0.4-13.4c0.6-8.2,1.3-14.4,1.3-14.4
			s-4.4,4.4-7.9,12.8c-1.7,4.2-3.3,9.4-3.5,15.7c0,3.1,0.2,6.5,1.3,9.8c0.4,1.5,1.3,3.5,2.3,5.2c1,1.9,1.7,2.5,2.7,3.8l2.3,2.9
			c0.4,1,1.2,1.7,1.5,2.7c0.8,1.9,1.5,4,1.9,6.3c0.8,4.6,0.8,9.2,0.6,13.4c-0.6,8.2-1.3,14.4-1.3,14.4s4.4-4.2,7.9-12.8
			c1-2.1,1.7-4.4,2.3-7.1c0.6-2.7,1.2-5.6,1-8.6c0-3.1-0.4-6.5-1.5-9.8C156.5,56.6,155.3,55.1,154.5,53.6z M151.7,49.5
			C151.7,49.5,151.5,49.4,151.7,49.5L151.7,49.5z"/>
		<path class="st0" d="M189.1,85c-0.6-1.7-1.5-3.3-2.3-4.8c-0.4-0.8-1.2-1.5-1.5-2.3l-0.8-1.2l-0.4-0.6l-0.2-0.2
			c0,0,0.2,0.2,0.4,0.4l0,0l-0.2-0.2c-0.8-1-2.3-2.5-2.3-3.1c-0.4-0.8-0.8-1.3-1.2-2.5c-0.8-1.9-1.3-4.2-1.7-6.5
			c-0.8-4.6-0.6-9.4-0.4-13.4c0.6-8.2,1.3-14.4,1.3-14.4s-4.4,4.4-7.9,12.8c-1.7,4.2-3.3,9.4-3.5,15.7c0,3.1,0.2,6.5,1.3,9.8
			c0.4,1.5,1.3,3.5,2.3,5.2c1,1.9,1.7,2.5,2.7,3.8l2.3,2.9c0.4,1,1.2,1.7,1.5,2.7c0.8,1.9,1.5,4,1.9,6.3c0.8,4.6,0.8,9.2,0.6,13.4
			c-0.6,8.2-1.3,14.4-1.3,14.4s4.4-4.2,7.9-12.8c1-2.1,1.7-4.4,2.3-7.1c0.6-2.7,1.2-5.6,1-8.6C190.8,91.7,190.4,88.3,189.1,85z
			 M183.9,76.2C183.9,76.2,183.7,76,183.9,76.2L183.9,76.2z"/>
	</g>
	<path class="st0" d="M275,156.8c-5,1.7-11.9,9.2-13.4,11.1l-0.2-1.9c-0.4-3.1-1.2-5.8-1.7-7.3h2.7v-5H43.7v5h2.9
		c-0.8,1.9-1.5,5.6-1.9,9.6c-0.2-0.4-8.2-9.4-13.6-11.3c-5.6-1.9-24.2,0-24.2,0v7.5c0,0,18.2-0.6,22.2,1.7
		c3.8,2.3,8.2,21.5,11.5,21.5c1.5,0,4.2,0,6.9,0c2.1,6.5,4.8,13,5.9,15.9h-5v7.7h5.4h198.3h5.6v-7.7h-5c1.2-2.9,3.8-9.4,5.9-15.9
		c2.5,0,5.2,0,6.7,0c3.3,0,7.5-19.4,11.5-21.5c3.8-2.3,22.2-1.7,22.2-1.7v-7.7C298.9,156.8,280.5,154.6,275,156.8z M59.8,174.2
		c0.2-2.7,1.2-5.2,1.7-7.3c1.5-4,3.6-6.1,3.6-6.1s-0.4,2.9-0.6,6.9c-0.2,4,0.2,9.2,0.8,14.2c0.4,2.9,1,5.4,1.5,7.5
		c0.6,2.3,1.2,4.6,1.9,6.5c0.8,1.9,1.2,3.6,1.5,4.8c0.4,1.2,0.6,1.9,0.6,1.9s-2.5-1.7-5-5.2c-1.2-1.7-2.5-3.8-3.8-6.3
		c-1.2-2.7-1.9-5.4-2.5-8.1c-0.4-1.5-0.2-3.1-0.4-4.4C59.4,176.9,59.6,175.5,59.8,174.2z"/>
</g>
</svg>
