<?xml version="1.0" encoding="utf-8"?>
<!-- Generator: Adobe Illustrator 19.0.1, SVG Export Plug-In . SVG Version: 6.00 Build 0)  -->
<!DOCTYPE svg PUBLIC "-//W3C//DTD SVG 1.1//EN" "http://www.w3.org/Graphics/SVG/1.1/DTD/svg11.dtd">
<svg version="1.1" id="Layer_1" xmlns="http://www.w3.org/2000/svg" xmlns:xlink="http://www.w3.org/1999/xlink" x="0px" y="0px"
	 viewBox="0 0 307 471" enable-background="new 0 0 307 471" xml:space="preserve">
<g>
	<g>
		<path fill="#078DD2" d="M119.6,87.4H73.3V41.8h12.9V16.5H1.8v25.3h12.9V112c0,9.5,3.4,17.4,9.9,23.7c6.5,6.3,14.4,9.5,23.5,9.5
			h71.6v12.4h25.3V75h-25.3V87.4z"/>
		<path fill="#078DD2" d="M292.1,190.8v-70.2c0-9.5-3.4-17.4-9.9-23.7c-6.5-6.3-14.4-9.5-23.5-9.5h-71.3V75h-25.3v82.6h25.3v-12.4
			h46.3v45.6h-12.9v24.6h84.4v-24.6H292.1z"/>
		<path fill="#078DD2" d="M286,284.5c0-3.6-2-9.5-5.9-17.6c-3.8-7.9-7.9-15.1-11.7-21.2l-5.9-9.3c-15.1,23.5-22.8,39.5-22.8,48.1
			c0,6.1,2.3,11.5,6.8,16c4.5,4.5,9.9,6.8,16.3,6.8s11.7-2.3,16.3-6.8C283.5,296,286,290.8,286,284.5z"/>
	</g>
</g>
</svg>
