<?xml version="1.0" encoding="utf-8"?>
<!-- Generator: Adobe Illustrator 18.1.1, SVG Export Plug-In . SVG Version: 6.00 Build 0)  -->
<!DOCTYPE svg PUBLIC "-//W3C//DTD SVG 1.1//EN" "http://www.w3.org/Graphics/SVG/1.1/DTD/svg11.dtd">
<svg version="1.1" id="Layer_1" xmlns="http://www.w3.org/2000/svg" xmlns:xlink="http://www.w3.org/1999/xlink" x="0px" y="0px"
	 viewBox="0 0 20.8 20.8" enable-background="new 0 0 20.8 20.8" xml:space="preserve">
<g>
	<path d="M20.6,12.2L20.6,12.2c0.1-0.6,0.2-1.2,0.2-1.8l0,0l0,0c0-0.6-0.1-1.2-0.2-1.7V8.6l0,0c-0.1-0.6-0.2-1.1-0.4-1.6l0-0.1
		l0-0.1c-0.2-0.5-0.4-1-0.7-1.5l0-0.1l-0.1-0.1c-0.3-0.5-0.6-1-1-1.4l0,0l0,0c-0.4-0.4-0.8-0.8-1.2-1.2l0,0l0,0
		c-0.4-0.4-0.9-0.7-1.4-1l-0.1,0l-0.1,0c-0.5-0.3-1-0.5-1.5-0.7l0,0l-0.1,0c-0.5-0.2-1.1-0.3-1.7-0.4l0,0h0C11.6,0.1,11,0,10.4,0
		C9.8,0,9.2,0.1,8.7,0.2H8.6l0,0C8,0.3,7.4,0.4,6.9,0.6l-0.1,0l-0.1,0c-0.5,0.2-1,0.4-1.5,0.7l-0.1,0l-0.1,0c-0.5,0.3-1,0.6-1.4,1
		l0,0l0,0C3.3,2.8,2.8,3.2,2.5,3.7l0,0l0,0c-0.4,0.4-0.7,0.9-1,1.4l0,0l0,0.1c-0.3,0.5-0.5,1-0.7,1.5l0,0.1l0,0.1
		C0.4,7.4,0.3,8,0.2,8.6l0,0v0.1C0.1,9.2,0,9.8,0,10.4l0,0l0,0c0,0.6,0.1,1.2,0.2,1.8l0,0l0,0c0.1,0.6,0.3,1.1,0.4,1.7l0,0.1l0,0
		c0.2,0.5,0.4,1.1,0.7,1.6l0,0.1l0,0c0.3,0.5,0.6,1,1,1.4l0,0l0,0c0.4,0.4,0.8,0.8,1.2,1.2l0,0l0,0c0.4,0.4,0.9,0.7,1.4,1l0.1,0.1
		l0.1,0c0.5,0.3,1,0.5,1.5,0.7l0.1,0l0.1,0c0.5,0.2,1.1,0.3,1.6,0.4l0.1,0l0.1,0l0,0c0.5,0.1,1.1,0.1,1.7,0.1l0,0l0,0
		c0.6,0,1.1-0.1,1.7-0.2l0,0l0.1,0l0,0c0.6-0.1,1.1-0.2,1.6-0.4l0.1,0l0.1,0c0.5-0.2,1-0.4,1.5-0.7l0.1,0l0.1-0.1
		c0.5-0.3,0.9-0.6,1.4-1l0,0l0,0c0.4-0.4,0.8-0.8,1.2-1.2l0,0l0,0c0.4-0.4,0.7-0.9,1-1.4l0,0l0-0.1c0.3-0.5,0.5-1,0.7-1.6l0,0l0-0.1
		C20.4,13.4,20.5,12.8,20.6,12.2L20.6,12.2z M19.1,12.3l0.7,0.1c-0.1,0.3-0.1,0.6-0.2,0.8l-0.6-0.2c-0.2-0.1-0.4,0-0.5,0.2
		c-0.1,0.2,0,0.4,0.2,0.5l0.6,0.2c-0.1,0.3-0.2,0.5-0.4,0.8l-1.7-1c-0.2-0.1-0.4,0-0.5,0.1c-0.1,0.2,0,0.4,0.1,0.5l1.7,1
		c-0.2,0.2-0.3,0.5-0.5,0.7l-0.5-0.4c-0.2-0.1-0.4-0.1-0.6,0c-0.1,0.2-0.1,0.4,0,0.6l0.5,0.4c-0.2,0.2-0.4,0.4-0.6,0.6L16.4,17
		c-0.1-0.2-0.4-0.2-0.6,0c-0.2,0.1-0.2,0.4,0,0.6l0.4,0.5c-0.2,0.2-0.5,0.3-0.7,0.5l-1-1.7c-0.1-0.2-0.4-0.3-0.5-0.1
		c-0.2,0.1-0.3,0.4-0.1,0.5l1,1.7c-0.3,0.1-0.5,0.3-0.8,0.4l-0.2-0.6c-0.1-0.2-0.3-0.3-0.5-0.2c-0.2,0.1-0.3,0.3-0.2,0.5l0.2,0.6
		c-0.3,0.1-0.6,0.2-0.8,0.2l-0.1-0.7c0-0.2-0.3-0.4-0.5-0.3c-0.2,0-0.4,0.2-0.3,0.5l0.1,0.7c-0.3,0-0.6,0.1-0.9,0.1l0-1.9
		c0-0.2-0.2-0.4-0.4-0.4c-0.2,0-0.4,0.2-0.4,0.4V20c-0.3,0-0.6,0-0.9-0.1l0.1-0.6c0-0.2-0.1-0.4-0.3-0.5c-0.2,0-0.4,0.1-0.5,0.3
		l-0.1,0.7c-0.3-0.1-0.6-0.1-0.8-0.2l0.2-0.6c0.1-0.2,0-0.4-0.2-0.5c-0.2-0.1-0.4,0-0.5,0.2l-0.2,0.6C6.5,19.2,6.2,19,6,18.9l1-1.7
		C7,17,7,16.8,6.8,16.7c-0.2-0.1-0.4,0-0.5,0.1l-1,1.7C5,18.3,4.8,18.2,4.6,18L5,17.5c0.1-0.2,0.1-0.4-0.1-0.6
		c-0.2-0.1-0.4-0.1-0.6,0.1l-0.4,0.5c-0.2-0.2-0.4-0.4-0.6-0.6l0.5-0.4C4,16.3,4,16,3.9,15.9c-0.1-0.2-0.4-0.2-0.6-0.1l-0.5,0.4
		c-0.2-0.2-0.3-0.5-0.5-0.7l1.7-1c0.2-0.1,0.3-0.4,0.1-0.5c-0.1-0.2-0.4-0.3-0.5-0.1l-1.7,1c-0.1-0.3-0.3-0.5-0.4-0.8l0.6-0.2
		c0.2-0.1,0.3-0.3,0.2-0.5c-0.1-0.2-0.3-0.3-0.5-0.2l-0.6,0.2C1.2,13,1.1,12.7,1,12.5l0.7-0.1c0.2,0,0.4-0.2,0.3-0.5
		c0-0.2-0.2-0.4-0.5-0.3l-0.7,0.1c0-0.3-0.1-0.6-0.1-0.9h1.9c0.2,0,0.4-0.2,0.4-0.4C3.1,10.2,3,10,2.7,10H0.8c0-0.3,0-0.6,0.1-0.9
		l0.7,0.1l0.1,0C1.8,9.3,2,9.1,2,8.9c0-0.2-0.1-0.4-0.3-0.5L1,8.3c0.1-0.3,0.1-0.6,0.2-0.8l0.6,0.2l0.1,0c0.2,0,0.3-0.1,0.4-0.3
		c0.1-0.2,0-0.4-0.2-0.5L1.5,6.7C1.6,6.5,1.8,6.2,1.9,6l1.7,1L3.8,7C3.9,7,4,6.9,4.1,6.8c0.1-0.2,0-0.4-0.1-0.5l-1.7-1
		C2.5,5,2.6,4.8,2.8,4.6L3.3,5C3.4,5,3.5,5.1,3.6,5.1c0.1,0,0.2,0,0.3-0.1C4,4.8,4,4.5,3.8,4.4L3.3,3.9c0.2-0.2,0.4-0.4,0.6-0.6
		l0.4,0.5C4.4,3.9,4.6,4,4.7,4c0.1,0,0.2,0,0.3-0.1C5.1,3.7,5.1,3.5,5,3.3L4.6,2.8C4.8,2.6,5,2.5,5.3,2.3l1,1.7
		c0.1,0.1,0.2,0.2,0.3,0.2l0.2-0.1C7,4,7,3.8,6.9,3.6L6,1.9c0.3-0.1,0.5-0.3,0.8-0.4L7,2.2C7,2.3,7.2,2.4,7.4,2.4l0.1,0
		c0.2-0.1,0.3-0.3,0.2-0.5L7.5,1.3C7.8,1.2,8.1,1.1,8.3,1l0.1,0.7C8.5,1.9,8.7,2,8.9,2l0.1,0c0.2,0,0.4-0.2,0.3-0.5L9.1,0.9
		c0.3,0,0.6-0.1,0.9-0.1v1.9c0,0.2,0.2,0.4,0.4,0.4c0.2,0,0.4-0.2,0.4-0.4l0-1.9c0.3,0,0.6,0,0.9,0.1l-0.1,0.7
		c0,0.2,0.1,0.4,0.3,0.5L12,2c0.2,0,0.4-0.1,0.4-0.3L12.5,1c0.3,0.1,0.6,0.1,0.8,0.2l-0.2,0.6c-0.1,0.2,0,0.4,0.2,0.5l0.1,0
		c0.2,0,0.3-0.1,0.4-0.3l0.2-0.6c0.3,0.1,0.5,0.2,0.8,0.4l-1,1.7c-0.1,0.2,0,0.4,0.1,0.5l0.2,0.1c0.1,0,0.3-0.1,0.3-0.2l1-1.7
		c0.2,0.2,0.5,0.3,0.7,0.5l-0.4,0.5c-0.1,0.2-0.1,0.4,0.1,0.6C16,3.9,16,4,16.1,4c0.1,0,0.2,0,0.3-0.1l0.4-0.5
		c0.2,0.2,0.4,0.4,0.6,0.6L17,4.4c-0.2,0.1-0.2,0.4,0,0.6C17,5,17.1,5.1,17.2,5.1c0.1,0,0.2,0,0.3-0.1L18,4.6
		c0.2,0.2,0.3,0.5,0.5,0.7l-1.7,1c-0.2,0.1-0.3,0.4-0.1,0.5C16.8,6.9,16.9,7,17,7l0.2-0.1l1.7-1c0.1,0.3,0.3,0.5,0.4,0.8L18.6,7
		c-0.2,0.1-0.3,0.3-0.2,0.5c0.1,0.2,0.2,0.3,0.4,0.3l0.1,0l0.6-0.2c0.1,0.3,0.2,0.6,0.2,0.8l-0.7,0.1c-0.2,0-0.4,0.2-0.3,0.5
		c0,0.2,0.2,0.3,0.4,0.3l0.1,0l0.7-0.1c0,0.3,0.1,0.6,0.1,0.9h-1.9c-0.2,0-0.4,0.2-0.4,0.4c0,0.2,0.2,0.4,0.4,0.4H20
		c0,0.3,0,0.6-0.1,0.9l-0.7-0.1c-0.2,0-0.4,0.1-0.5,0.3C18.8,12.1,18.9,12.3,19.1,12.3L19.1,12.3z M19.1,12.3"/>
	<path d="M10.4,4.4l-1.2,6H5.3c0,2.8,2.3,5.1,5.1,5.1c2.8,0,5.1-2.3,5.1-5.1h-3.9L10.4,4.4z M9.6,11.2"/>
</g>
</svg>
