<?xml version="1.0" encoding="utf-8"?>
<!-- Generator: Adobe Illustrator 19.0.1, SVG Export Plug-In . SVG Version: 6.00 Build 0)  -->
<!DOCTYPE svg PUBLIC "-//W3C//DTD SVG 1.1//EN" "http://www.w3.org/Graphics/SVG/1.1/DTD/svg11.dtd">
<svg version="1.1" id="Layer_1" xmlns="http://www.w3.org/2000/svg" xmlns:xlink="http://www.w3.org/1999/xlink" x="0px" y="0px"
	 viewBox="-28 167 250 138" style="enable-background:new -28 167 250 138;" xml:space="preserve">
<style type="text/css">
	.st0{fill:#078DD2;}
</style>
<g>
	<g>
		<g>
			<path class="st0" d="M174.1,234.8c0,0-8.3,1.2-13.3,2c-10,3.9-12.2,11.3-23.2,11.5c-14.9,0.3-66.2,0.3-81.1,0
				c-11-0.2-13.2-7.7-23.2-11.5c-5-0.7-13.3-2-13.3-2c-0.3,1-3.7,5.2,2.5,6.7c3.6,0.8,1.9,16.2,1.9,18.3c0,19.2,12.9,32.2,32.1,32.2
				h39.7h1.7h39.7c19.2,0,32.1-13,32.1-32.2c0-2.1-1.7-17.5,1.9-18.3C177.8,240,174.3,235.8,174.1,234.8z M120.7,259.5H73.2
				c-1.2,0-2.2-1-2.2-2.2c0-1.2,1-2.2,2.2-2.2h47.5c1.2,0,2.2,1,2.2,2.2C122.9,258.5,121.9,259.5,120.7,259.5z"/>
			<g>
				<path class="st0" d="M71.1,298.8c0,1.5-1.2,2.6-2.6,2.6h-9.6c-1.5,0-2.6-1.2-2.6-2.6l0,0c0-1.5,1.2-2.6,2.6-2.6h9.6
					C69.9,296.2,71.1,297.4,71.1,298.8L71.1,298.8z"/>
				<path class="st0" d="M142.9,298.8c0,1.5-1.2,2.6-2.6,2.6h-9.6c-1.5,0-2.6-1.2-2.6-2.6l0,0c0-1.5,1.2-2.6,2.6-2.6h9.6
					C141.7,296.2,142.9,297.4,142.9,298.8L142.9,298.8z"/>
			</g>
		</g>
		<g>
			<path class="st0" d="M148.7,184c-0.6-7.5-6.8-13.5-14.5-13.5c-8.1,0-14.6,6.6-14.6,14.6h6.7c0-4.4,3.6-8,8-8s8,3.6,8,8v63h6.7
				V184H148.7z"/>
			<path class="st0" d="M136.4,198.6c0,7.5-6,0.9-13.5,0.9s-13.5,6.5-13.5-0.9c0-7.5,6-13.5,13.5-13.5S136.4,191.2,136.4,198.6z"/>
		</g>
		<g>
			<g>
				<g>
					<polygon class="st0" points="130.5,214.3 127.2,214.3 127.2,204.8 130.5,204.8 					"/>
				</g>
				<g>
					<polygon class="st0" points="130.5,228.3 127.2,228.3 127.2,218.9 130.5,218.9 					"/>
				</g>
				<g>
					<polygon class="st0" points="130.5,242.3 127.2,242.3 127.2,232.9 130.5,232.9 					"/>
				</g>
			</g>
			<g>
				<g>
					<polygon class="st0" points="121.7,215 118.5,214.2 121,205.1 124.2,205.9 					"/>
				</g>
				<g>
					<polygon class="st0" points="118.1,228.6 114.9,227.7 117.3,218.6 120.5,219.4 					"/>
				</g>
				<g>
					<polygon class="st0" points="114.5,242.1 111.3,241.2 113.7,232.1 116.9,233 					"/>
				</g>
			</g>
			<g>
				<g>
					<polygon class="st0" points="112.2,214.2 109.3,212.6 114,204.4 116.9,206 					"/>
				</g>
				<g>
					<polygon class="st0" points="105.2,226.4 102.3,224.7 107,216.5 109.9,218.2 					"/>
				</g>
				<g>
					<polygon class="st0" points="98.2,238.5 95.3,236.8 100,228.7 102.9,230.3 					"/>
				</g>
			</g>
		</g>
	</g>
</g>
</svg>
