<?xml version="1.0" encoding="utf-8"?>
<!-- Generator: Adobe Illustrator 19.0.1, SVG Export Plug-In . SVG Version: 6.00 Build 0)  -->
<!DOCTYPE svg PUBLIC "-//W3C//DTD SVG 1.1//EN" "http://www.w3.org/Graphics/SVG/1.1/DTD/svg11.dtd">
<svg version="1.1" id="Layer_1" xmlns="http://www.w3.org/2000/svg" xmlns:xlink="http://www.w3.org/1999/xlink" x="0px" y="0px"
	 viewBox="0 0 250 138" enable-background="new 0 0 250 138" xml:space="preserve">
<text transform="matrix(1 0 0 1 263.3614 9.6471)" fill="#078DD2" font-family="'MyriadPro-Regular'" font-size="12px">#078dd2</text>
<g>
	<path fill="#078DD2" d="M466.2,60.6c6.1,0,11.5-3.3,14.3-8.3h2.6c9.1,0,8,9.5,8,9.5V69h16.6V52.5c0-9.1-7.4-16.6-16.6-16.6
		l-10.6-0.2c-1.5-2.5-3.5-4.6-6.1-6.1V19.2h0.1l8.4,0c4.6,0,8.3-3.7,8.3-8.3c0-4.6-3.7-8.3-8.3-8.3h-33.3c-4.6,0-8.3,3.7-8.3,8.3
		c0,4.6,3.7,8.3,8.3,8.3l8.3,0v10.5c-2.5,1.5-4.6,3.5-6.1,6.1h-27.2v16.6h27.2C454.7,57.3,460.1,60.6,466.2,60.6z"/>
	<path fill="#078DD2" d="M516,69c0,6.2,3.4,11.5,8.3,14.4v27.1c0,4.6-3.8,8.3-8.3,8.3c-4.6,0-8.3-3.7-8.3-8.3h0l0.1-3.6
		c0-13.2-6.9-21.3-23.4-21.3l-9.8,0.1v-8.3c-6.1,0-11.5,3.4-14.4,8.3l-4.5,0l-30.9-0.1v16.4l35.4,0c2.9,5.3,8.2,8.6,14.4,8.6V102
		h8.4l-0.1,0c4.6,0,8.3,3.8,8.3,8.3v0.2c0,13.8,11.1,24.9,24.9,24.9c13.8,0,24.9-11.1,24.9-24.9l0-27.2c5-2.9,8.3-8.2,8.3-14.4H516z
		"/>
</g>
<g>
	<g>
		<g>
			<path fill="#078DD2" d="M202.1,67.8c0,0-8.3,1.2-13.3,2c-10,3.9-12.2,11.3-23.2,11.5c-14.9,0.3-66.2,0.3-81.1,0
				c-11-0.2-13.2-7.7-23.2-11.5c-5-0.7-13.3-2-13.3-2c-0.3,1-3.7,5.2,2.5,6.7c3.6,0.8,1.9,16.2,1.9,18.3c0,19.2,12.9,32.2,32.1,32.2
				h39.7h1.7h39.7c19.2,0,32.1-13,32.1-32.2c0-2.1-1.7-17.5,1.9-18.3C205.8,73,202.3,68.8,202.1,67.8z M148.7,92.5h-47.5
				c-1.2,0-2.2-1-2.2-2.2c0-1.2,1-2.2,2.2-2.2h47.5c1.2,0,2.2,1,2.2,2.2C150.9,91.5,149.9,92.5,148.7,92.5z"/>
			<g>
				<path fill="#078DD2" d="M99.1,131.8c0,1.5-1.2,2.6-2.6,2.6h-9.6c-1.5,0-2.6-1.2-2.6-2.6l0,0c0-1.5,1.2-2.6,2.6-2.6h9.6
					C97.9,129.2,99.1,130.4,99.1,131.8L99.1,131.8z"/>
				<path fill="#078DD2" d="M170.9,131.8c0,1.5-1.2,2.6-2.6,2.6h-9.6c-1.5,0-2.6-1.2-2.6-2.6l0,0c0-1.5,1.2-2.6,2.6-2.6h9.6
					C169.7,129.2,170.9,130.4,170.9,131.8L170.9,131.8z"/>
			</g>
		</g>
		<g>
			<path fill="#078DD2" d="M176.7,17c-0.6-7.5-6.8-13.5-14.5-13.5c-8.1,0-14.6,6.6-14.6,14.6h6.7c0-4.4,3.6-8,8-8c4.4,0,8,3.6,8,8
				v63h6.7V17H176.7z"/>
			<path fill="#078DD2" d="M164.4,31.6c0,7.5-6,0.9-13.5,0.9c-7.5,0-13.5,6.5-13.5-0.9c0-7.5,6-13.5,13.5-13.5
				C158.4,18.1,164.4,24.2,164.4,31.6z"/>
		</g>
		<g>
			<g>
				<g>
					<polygon fill="#078DD2" points="158.5,47.3 155.2,47.3 155.2,37.8 158.5,37.8 158.5,47.3 					"/>
				</g>
				<g>
					<polygon fill="#078DD2" points="158.5,61.3 155.2,61.3 155.2,51.9 158.5,51.9 158.5,61.3 					"/>
				</g>
				<g>
					<polygon fill="#078DD2" points="158.5,75.3 155.2,75.3 155.2,65.9 158.5,65.9 158.5,75.3 					"/>
				</g>
			</g>
			<g>
				<g>
					<polygon fill="#078DD2" points="149.7,48 146.5,47.2 149,38.1 152.2,38.9 149.7,48 					"/>
				</g>
				<g>
					<polygon fill="#078DD2" points="146.1,61.6 142.9,60.7 145.3,51.6 148.5,52.4 146.1,61.6 					"/>
				</g>
				<g>
					<polygon fill="#078DD2" points="142.5,75.1 139.3,74.2 141.7,65.1 144.9,66 142.5,75.1 					"/>
				</g>
			</g>
			<g>
				<g>
					<polygon fill="#078DD2" points="140.2,47.2 137.3,45.6 142,37.4 144.9,39 140.2,47.2 					"/>
				</g>
				<g>
					<polygon fill="#078DD2" points="133.2,59.4 130.3,57.7 135,49.5 137.9,51.2 133.2,59.4 					"/>
				</g>
				<g>
					<polygon fill="#078DD2" points="126.2,71.5 123.3,69.8 128,61.7 130.9,63.3 126.2,71.5 					"/>
				</g>
			</g>
		</g>
	</g>
</g>
</svg>
