<?xml version="1.0" encoding="utf-8"?>
<!-- Generator: Adobe Illustrator 19.0.1, SVG Export Plug-In . SVG Version: 6.00 Build 0)  -->
<!DOCTYPE svg PUBLIC "-//W3C//DTD SVG 1.1//EN" "http://www.w3.org/Graphics/SVG/1.1/DTD/svg11.dtd">
<svg version="1.1" id="Layer_1" xmlns="http://www.w3.org/2000/svg" xmlns:xlink="http://www.w3.org/1999/xlink" x="0px" y="0px"
	 viewBox="-28 167 250 138" style="enable-background:new -28 167 250 138;" xml:space="preserve">
<style type="text/css">
	.st0{fill:#078DD2;}
</style>
<g>
	<g>
		<path class="st0" d="M161.8,228.9L146.2,213v-33.2c0-4.4-3.5-7.8-7.9-7.8h-6.7c-4.4,0-7.9,3.5-7.9,7.8v10.1l-11.3-11.5
			c-4-4.3-9.5-6.4-15.2-6.4c-5.5,0-11,2.2-15.3,6.4l-49.8,50.5c-8.4,8.6-2.2,20.1,7.3,20.1h8.2v38.7c0,6.9,5.7,12.4,12.4,12.4h73.8
			c6.9,0,12.4-5.7,12.4-12.4v-38.8h8.4C164.1,248.9,170.3,237.4,161.8,228.9z M97.4,286.4c-16.7,0-30.1-13.5-30.1-30.2
			c0-9.7,4.6-18,11.5-23.5c1.5-1.1,2.6,0,2.2,0.8c-4.9,11.3-1.4,22.5,6.9,24.8c-2.5-5.8-3.5-12.2-2.8-19c1.1-9.8,6-18.4,12.8-24.3
			c0.3-0.5,1.1-0.8,1.5-0.8s0.8,0.5,0.6,1.1c-0.4,2-0.9,4-1.1,6c-0.9,8.2,0.9,16.1,4.8,22.8c5.8,0,8.2-6.7,8.9-11.3
			c0-1.1,0.9-1.8,2.6-0.6c7.5,5.5,12.4,14.2,12.4,24.2C127.6,272.9,114.1,286.4,97.4,286.4z"/>
	</g>
</g>
</svg>
