<?xml version="1.0" encoding="utf-8"?>
<!-- Generator: Adobe Illustrator 19.0.1, SVG Export Plug-In . SVG Version: 6.00 Build 0)  -->
<!DOCTYPE svg PUBLIC "-//W3C//DTD SVG 1.1//EN" "http://www.w3.org/Graphics/SVG/1.1/DTD/svg11.dtd">
<svg version="1.1" id="Layer_1" xmlns="http://www.w3.org/2000/svg" xmlns:xlink="http://www.w3.org/1999/xlink" x="0px" y="0px"
	 viewBox="0 0 250 138" enable-background="new 0 0 250 138" xml:space="preserve">
<text transform="matrix(1 0 0 1 263.3614 9.6471)" fill="#078DD2" font-family="'MyriadPro-Regular'" font-size="12px">#078dd2</text>
<g>
	<path fill="#078DD2" d="M466.2,60.6c6.1,0,11.5-3.3,14.3-8.3h2.6c9.1,0,8,9.5,8,9.5V69h16.6V52.5c0-9.1-7.4-16.6-16.6-16.6
		l-10.6-0.2c-1.5-2.5-3.5-4.6-6.1-6.1V19.2h0.1l8.4,0c4.6,0,8.3-3.7,8.3-8.3c0-4.6-3.7-8.3-8.3-8.3h-33.3c-4.6,0-8.3,3.7-8.3,8.3
		c0,4.6,3.7,8.3,8.3,8.3l8.3,0v10.5c-2.5,1.5-4.6,3.5-6.1,6.1h-27.2v16.6h27.2C454.7,57.3,460.1,60.6,466.2,60.6z"/>
	<path fill="#078DD2" d="M516,69c0,6.2,3.4,11.5,8.3,14.4v27.1c0,4.6-3.8,8.3-8.3,8.3c-4.6,0-8.3-3.7-8.3-8.3h0l0.1-3.6
		c0-13.2-6.9-21.3-23.4-21.3l-9.8,0.1v-8.3c-6.1,0-11.5,3.4-14.4,8.3l-4.5,0l-30.9-0.1v16.4l35.4,0c2.9,5.3,8.2,8.6,14.4,8.6V102
		h8.4l-0.1,0c4.6,0,8.3,3.8,8.3,8.3v0.2c0,13.8,11.1,24.9,24.9,24.9c13.8,0,24.9-11.1,24.9-24.9l0-27.2c5-2.9,8.3-8.2,8.3-14.4H516z
		"/>
</g>
<g>
	<g>
		<g>
			<path fill="#078DD2" d="M518.6,145.4c0,0-8.3,1.2-13.3,2c-10,3.9-12.2,11.3-23.2,11.5c-14.9,0.3-66.2,0.3-81.1,0
				c-11-0.2-13.2-7.7-23.2-11.5c-5-0.7-13.3-2-13.3-2c-0.3,1-3.7,5.2,2.5,6.7c3.6,0.8,1.9,16.2,1.9,18.3c0,19.2,12.9,32.2,32.1,32.2
				h39.7h1.7h39.7c19.2,0,32.1-13,32.1-32.2c0-2.1-1.7-17.5,1.9-18.3C522.3,150.6,518.8,146.4,518.6,145.4z M465.2,170.1h-47.5
				c-1.2,0-2.2-1-2.2-2.2c0-1.2,1-2.2,2.2-2.2h47.5c1.2,0,2.2,1,2.2,2.2C467.4,169.1,466.4,170.1,465.2,170.1z"/>
			<g>
				<path fill="#078DD2" d="M415.6,209.5c0,1.5-1.2,2.6-2.6,2.6h-9.6c-1.5,0-2.6-1.2-2.6-2.6l0,0c0-1.5,1.2-2.6,2.6-2.6h9.6
					C414.4,206.8,415.6,208,415.6,209.5L415.6,209.5z"/>
				<path fill="#078DD2" d="M487.4,209.5c0,1.5-1.2,2.6-2.6,2.6h-9.6c-1.5,0-2.6-1.2-2.6-2.6l0,0c0-1.5,1.2-2.6,2.6-2.6h9.6
					C486.2,206.8,487.4,208,487.4,209.5L487.4,209.5z"/>
			</g>
		</g>
		<g>
			<path fill="#078DD2" d="M493.2,94.6c-0.6-7.5-6.8-13.5-14.5-13.5c-8.1,0-14.6,6.6-14.6,14.6h6.7c0-4.4,3.6-8,8-8c4.4,0,8,3.6,8,8
				v63h6.7V94.6H493.2z"/>
			<path fill="#078DD2" d="M480.9,109.2c0,7.5-6,0.9-13.5,0.9c-7.5,0-13.5,6.5-13.5-0.9c0-7.5,6-13.5,13.5-13.5
				C474.9,95.7,480.9,101.8,480.9,109.2z"/>
		</g>
		<g>
			<g>
				<g>
					<polygon fill="#078DD2" points="475,124.9 471.7,124.9 471.7,115.5 475,115.5 475,124.9 					"/>
				</g>
				<g>
					<polygon fill="#078DD2" points="475,138.9 471.7,138.9 471.7,129.5 475,129.5 475,138.9 					"/>
				</g>
				<g>
					<polygon fill="#078DD2" points="475,152.9 471.7,152.9 471.7,143.5 475,143.5 475,152.9 					"/>
				</g>
			</g>
			<g>
				<g>
					<polygon fill="#078DD2" points="466.2,125.6 463,124.8 465.5,115.7 468.7,116.5 466.2,125.6 					"/>
				</g>
				<g>
					<polygon fill="#078DD2" points="462.6,139.2 459.4,138.3 461.8,129.2 465,130.1 462.6,139.2 					"/>
				</g>
				<g>
					<polygon fill="#078DD2" points="459,152.7 455.8,151.8 458.2,142.7 461.4,143.6 459,152.7 					"/>
				</g>
			</g>
			<g>
				<g>
					<polygon fill="#078DD2" points="456.7,124.8 453.8,123.2 458.5,115 461.4,116.7 456.7,124.8 					"/>
				</g>
				<g>
					<polygon fill="#078DD2" points="449.7,137 446.8,135.3 451.5,127.1 454.4,128.8 449.7,137 					"/>
				</g>
				<g>
					<polygon fill="#078DD2" points="442.7,149.1 439.8,147.4 444.5,139.3 447.4,140.9 442.7,149.1 					"/>
				</g>
			</g>
		</g>
	</g>
</g>
<g>
	<g>
		<path fill="#078DD2" d="M189.8,61.9L174.2,46V12.8c0-4.4-3.5-7.8-7.9-7.8h-6.7c-4.4,0-7.9,3.5-7.9,7.8v10.1l-11.3-11.5
			c-4-4.3-9.5-6.4-15.2-6.4c-5.5,0-11,2.2-15.3,6.4L60.1,61.9c-8.4,8.6-2.2,20.1,7.3,20.1h8.2v38.7c0,6.9,5.7,12.4,12.4,12.4h73.8
			c6.9,0,12.4-5.7,12.4-12.4V81.9h8.4C192.1,81.9,198.3,70.4,189.8,61.9z M125.4,119.4c-16.7,0-30.1-13.5-30.1-30.2
			c0-9.7,4.6-18,11.5-23.5c1.5-1.1,2.6,0,2.2,0.8c-4.9,11.3-1.4,22.5,6.9,24.8c-2.5-5.8-3.5-12.2-2.8-19c1.1-9.8,6-18.4,12.8-24.3
			c0.3-0.5,1.1-0.8,1.5-0.8s0.8,0.5,0.6,1.1c-0.4,2-0.9,4-1.1,6c-0.9,8.2,0.9,16.1,4.8,22.8c5.8,0,8.2-6.7,8.9-11.3
			c0-1.1,0.9-1.8,2.6-0.6c7.5,5.5,12.4,14.2,12.4,24.2C155.6,105.9,142.1,119.4,125.4,119.4z"/>
	</g>
</g>
</svg>
