<?xml version="1.0" encoding="utf-8"?>
<!-- Generator: Adobe Illustrator 19.0.1, SVG Export Plug-In . SVG Version: 6.00 Build 0)  -->
<!DOCTYPE svg PUBLIC "-//W3C//DTD SVG 1.1//EN" "http://www.w3.org/Graphics/SVG/1.1/DTD/svg11.dtd">
<svg version="1.1" id="Layer_1" xmlns="http://www.w3.org/2000/svg" xmlns:xlink="http://www.w3.org/1999/xlink" x="0px" y="0px"
	 viewBox="-28 167 250 138" style="enable-background:new -28 167 250 138;" xml:space="preserve">
<style type="text/css">
	.st0{fill:#078DD2;}
</style>
<g>
	<g>
		<g>
			<path class="st0" d="M124.8,241.3H34v58.1h126v-58.1h-23l-1.7-3.6l-25.6-53.3c-0.8-1.4-2.4-2.1-3.6-1.4l-9.1,4.8
				c-1.2,0.6-1.6,2.3-0.8,3.8l0.3,0.6l-1.2,0.6l-1.4-2.6c-0.4-0.7-1.2-1-1.8-0.7l-0.2,0.1c-0.6,0.3-0.8,1.2-0.4,1.9l15.2,28.9
				c0.4,0.7,1.2,1,1.8,0.7l0.2-0.1c0.6-0.3,0.8-1.2,0.4-1.9l-10.3-19.5l1.5-0.8L124.8,241.3z M153.5,247.8v45.1h-113v-45.1h88
				l1.3,2.2l4.1-2.2h2.4l-5.8,3l9.1,8.6l1.5-0.8l-1.7-10.9C139.4,247.8,153.5,247.8,153.5,247.8z"/>
			<path class="st0" d="M91.6,178.6l1.5-0.8l4.3,8.1l7.3-3.9l-4.3-8.1l1.4-0.7C101.8,173.2,94.5,169.8,91.6,178.6z"/>
			<path class="st0" d="M49.3,262.4c-2.6,1.4-0.3,5.4,2.3,3.9c15.4-8.4,34.7-2.6,50.8,0.5c13.7,2.6,27.9,5.1,41.5,1.3
				c2.8-0.8,1.6-5.2-1.2-4.4C112.4,272.2,78.3,246.7,49.3,262.4z"/>
			<path class="st0" d="M142.3,280.2c-28.9,2.5-63.7-17.5-90.7-1.2c-2.5,1.5-0.2,5.4,2.4,3.9c25.8-15.6,60.4,4.3,88.4,1.8
				C145.2,284.5,145.2,279.9,142.3,280.2z"/>
		</g>
	</g>
</g>
</svg>
