<?xml version="1.0" encoding="utf-8"?>
<!-- Generator: Adobe Illustrator 19.0.1, SVG Export Plug-In . SVG Version: 6.00 Build 0)  -->
<!DOCTYPE svg PUBLIC "-//W3C//DTD SVG 1.1//EN" "http://www.w3.org/Graphics/SVG/1.1/DTD/svg11.dtd">
<svg version="1.1" id="Layer_1" xmlns="http://www.w3.org/2000/svg" xmlns:xlink="http://www.w3.org/1999/xlink" x="0px" y="0px"
	 viewBox="-28 167 250 138" style="enable-background:new -28 167 250 138;" xml:space="preserve">
<style type="text/css">
	.st0{fill:#078DD2;}
</style>
<g>
	<g>
		<g>
			<path class="st0" d="M54.9,198.3c-0.9,1.1-0.8,2.7,0.3,3.7c0.5,0.4,1.1,0.6,1.7,0.6c0.7,0,1.5-0.3,2-0.9
				c0.4-0.5,9.8-11.5,2.7-20.4c-3.9-5-1-7.9-0.4-8.4c1.1-0.9,1.3-2.5,0.4-3.6c-1-1.2-2.6-1.3-3.7-0.5c-2.7,2.2-6.3,8.2-0.4,15.7
				C61.9,190.1,55,198.2,54.9,198.3z"/>
			<path class="st0" d="M77.7,198.3c-0.9,1.1-0.8,2.7,0.3,3.7c0.5,0.4,1.1,0.6,1.7,0.6c0.7,0,1.5-0.3,2-0.9
				c0.4-0.5,9.8-11.5,2.7-20.4c-3.9-5-1-7.9-0.4-8.4c1.1-0.9,1.3-2.5,0.4-3.6c-0.9-1.1-2.5-1.3-3.7-0.4c-2.7,2.2-6.3,8.2-0.4,15.7
				C84.6,190.1,77.7,198.2,77.7,198.3z"/>
			<path class="st0" d="M100.4,198.3c-0.9,1.1-0.8,2.7,0.3,3.7c0.5,0.4,1.1,0.6,1.7,0.6c0.7,0,1.5-0.3,2-0.9
				c0.4-0.5,9.8-11.5,2.7-20.4c-3.9-5-1-7.9-0.4-8.4c1.1-0.9,1.3-2.5,0.4-3.6c-0.9-1.1-2.5-1.3-3.7-0.4c-2.7,2.2-6.3,8.2-0.4,15.7
				C107.4,190.1,100.5,198.2,100.4,198.3z"/>
			<path class="st0" d="M123.2,198.3c-0.9,1.1-0.8,2.7,0.3,3.7c0.5,0.4,1.1,0.6,1.7,0.6c0.7,0,1.5-0.3,2-0.9
				c0.4-0.5,9.8-11.5,2.7-20.4c-3.9-5-1-7.9-0.4-8.4c1.1-0.9,1.3-2.5,0.4-3.6c-0.9-1.1-2.5-1.3-3.7-0.4c-2.7,2.2-6.3,8.2-0.4,15.7
				C130.1,190.1,123.2,198.2,123.2,198.3z"/>
			<path class="st0" d="M48.8,303.7c4.3,0,7.8-3.5,7.8-7.8V220c0-4.3-3.5-7.8-7.8-7.8S41,215.7,41,220v75.9
				C41,300.2,44.5,303.7,48.8,303.7z"/>
			<path class="st0" d="M58.8,219.9v75.9c0,4.3,3.5,7.8,7.8,7.8s7.8-3.5,7.8-7.8v-75.9c0-4.3-3.5-7.8-7.8-7.8S58.8,215.6,58.8,219.9
				z"/>
			<path class="st0" d="M84.3,303.5c4.3,0,7.8-3.5,7.8-7.8v-76c0-4.3-3.5-7.8-7.8-7.8s-7.8,3.5-7.8,7.8v75.9
				C76.5,300,80,303.5,84.3,303.5z"/>
			<path class="st0" d="M102.1,303.4c4.3,0,7.8-3.5,7.8-7.8v-76c0-4.3-3.5-7.8-7.8-7.8s-7.8,3.5-7.8,7.8v75.9
				C94.3,299.9,97.8,303.4,102.1,303.4z"/>
			<path class="st0" d="M119.9,303.3c4.3,0,7.8-3.5,7.8-7.8v-76c0-4.3-3.5-7.8-7.8-7.8s-7.8,3.5-7.8,7.8v75.9
				C112.1,299.8,115.6,303.3,119.9,303.3z"/>
			<path class="st0" d="M129.8,219.4v75.9c0,4.3,3.5,7.8,7.8,7.8s7.8-3.5,7.8-7.8v-50.6h1.2c3.5,0,6.4-4.5,6.4-10s-2.9-10-6.4-10
				c-0.4,0-0.8,0-1.2,0v-5.4c0-4.3-3.5-7.8-7.8-7.8S129.8,215.1,129.8,219.4z"/>
		</g>
	</g>
</g>
</svg>
