<?xml version="1.0" encoding="utf-8"?>
<!-- Generator: Adobe Illustrator 19.0.1, SVG Export Plug-In . SVG Version: 6.00 Build 0)  -->
<!DOCTYPE svg PUBLIC "-//W3C//DTD SVG 1.1//EN" "http://www.w3.org/Graphics/SVG/1.1/DTD/svg11.dtd">
<svg version="1.1" id="Layer_1" xmlns="http://www.w3.org/2000/svg" xmlns:xlink="http://www.w3.org/1999/xlink" x="0px" y="0px"
	 viewBox="-28 167 250 138" style="enable-background:new -28 167 250 138;" xml:space="preserve">
<style type="text/css">
	.st0{fill:#078DD2;}
</style>
<g>
	<g>
		<rect x="48.4" y="297.1" class="st0" width="97.5" height="4.6"/>
		<polygon class="st0" points="82.6,293.9 95.7,293.9 98.3,293.9 111.4,293.9 113.3,293.9 129,293.9 120.2,280.7 112.4,292.5 
			104.5,280.7 97,292 89.5,280.7 81.6,292.5 73.8,280.7 65,293.9 80.7,293.9 		"/>
	</g>
	<g>
		<path class="st0" d="M84.2,208.5c-0.2-0.4-0.6-0.8-0.8-1.2l-0.4-0.6l-0.2-0.3l-0.1-0.1c0,0,0.1,0.1,0.2,0.2l0,0l-0.1-0.1
			c-0.4-0.5-1.2-1.3-1.2-1.6c-0.2-0.4-0.4-0.7-0.6-1.3c-0.4-1-0.7-2.2-0.9-3.4c-0.4-2.4-0.3-4.9-0.2-7c0.3-4.3,0.7-7.5,0.7-7.5
			s-2.3,2.3-4.1,6.7c-0.9,2.2-1.7,4.9-1.8,8.2c0,1.6,0.1,3.4,0.7,5.1c0.2,0.8,0.7,1.8,1.2,2.7c0.5,1,0.9,1.3,1.4,2l1.2,1.5
			c0.2,0.5,0.6,0.9,0.8,1.4c0.4,1,0.8,2.1,1,3.3c0.4,2.4,0.4,4.8,0.3,7c-0.3,4.3-0.7,7.5-0.7,7.5s2.3-2.2,4.1-6.7
			c0.5-1.1,0.9-2.3,1.2-3.7c0.3-1.4,0.6-2.9,0.5-4.5c0-1.6-0.2-3.4-0.8-5.1C85.2,210.2,84.6,209.3,84.2,208.5z M82.7,206.4
			C82.7,206.4,82.6,206.3,82.7,206.4L82.7,206.4z"/>
		<path class="st0" d="M97.8,193.2c-0.2-0.4-0.6-0.8-0.8-1.2l-0.4-0.6l-0.2-0.3l-0.1-0.1c0,0,0.1,0.1,0.2,0.2l0,0l-0.1-0.1
			c-0.4-0.5-1.2-1.3-1.2-1.6c-0.2-0.4-0.4-0.7-0.6-1.3c-0.4-1-0.7-2.2-0.9-3.4c-0.4-2.4-0.3-4.9-0.2-7c0.3-4.3,0.7-7.5,0.7-7.5
			s-2.3,2.3-4.1,6.7c-0.9,2.2-1.7,4.9-1.8,8.2c0,1.6,0.1,3.4,0.7,5.1c0.2,0.8,0.7,1.8,1.2,2.7c0.5,1,0.9,1.3,1.4,2l1.2,1.5
			c0.2,0.5,0.6,0.9,0.8,1.4c0.4,1,0.8,2.1,1,3.3c0.4,2.4,0.4,4.8,0.3,7c-0.3,4.3-0.7,7.5-0.7,7.5s2.3-2.2,4.1-6.7
			c0.5-1.1,0.9-2.3,1.2-3.7c0.3-1.4,0.6-2.9,0.5-4.5c0-1.6-0.2-3.4-0.8-5.1C98.8,194.8,98.2,194,97.8,193.2z M96.3,191.1
			C96.3,191.1,96.2,191,96.3,191.1L96.3,191.1z"/>
		<path class="st0" d="M115.8,209.6c-0.3-0.9-0.8-1.7-1.2-2.5c-0.2-0.4-0.6-0.8-0.8-1.2l-0.4-0.6l-0.2-0.3l-0.1-0.1
			c0,0,0.1,0.1,0.2,0.2l0,0l-0.1-0.1c-0.4-0.5-1.2-1.3-1.2-1.6c-0.2-0.4-0.4-0.7-0.6-1.3c-0.4-1-0.7-2.2-0.9-3.4
			c-0.4-2.4-0.3-4.9-0.2-7c0.3-4.3,0.7-7.5,0.7-7.5s-2.3,2.3-4.1,6.7c-0.9,2.2-1.7,4.9-1.8,8.2c0,1.6,0.1,3.4,0.7,5.1
			c0.2,0.8,0.7,1.8,1.2,2.7c0.5,1,0.9,1.3,1.4,2l1.2,1.5c0.2,0.5,0.6,0.9,0.8,1.4c0.4,1,0.8,2.1,1,3.3c0.4,2.4,0.4,4.8,0.3,7
			c-0.3,4.3-0.7,7.5-0.7,7.5s2.3-2.2,4.1-6.7c0.5-1.1,0.9-2.3,1.2-3.7c0.3-1.4,0.6-2.9,0.5-4.5C116.7,213.1,116.5,211.3,115.8,209.6
			z M113.1,205C113.1,205,113,204.9,113.1,205L113.1,205z"/>
	</g>
	<path class="st0" d="M160.6,247c-2.6,0.9-6.2,4.8-7,5.8l-0.1-1c-0.2-1.6-0.6-3-0.9-3.8h1.4v-2.6H40v2.6h1.5c-0.4,1-0.8,2.9-1,5
		c-0.1-0.2-4.3-4.9-7.1-5.9c-2.9-1-12.6,0-12.6,0v3.9c0,0,9.5-0.3,11.6,0.9c2,1.2,4.3,11.2,6,11.2c0.8,0,2.2,0,3.6,0
		c1.1,3.4,2.5,6.8,3.1,8.3h-2.6v4h2.8h103.4h2.9v-4H149c0.6-1.5,2-4.9,3.1-8.3c1.3,0,2.7,0,3.5,0c1.7,0,3.9-10.1,6-11.2
		c2-1.2,11.6-0.9,11.6-0.9v-4C173.1,247,163.5,245.9,160.6,247z M48.4,256.1c0.1-1.4,0.6-2.7,0.9-3.8c0.8-2.1,1.9-3.2,1.9-3.2
		s-0.2,1.5-0.3,3.6c-0.1,2.1,0.1,4.8,0.4,7.4c0.2,1.5,0.5,2.8,0.8,3.9c0.3,1.2,0.6,2.4,1,3.4s0.6,1.9,0.8,2.5c0.2,0.6,0.3,1,0.3,1
		s-1.3-0.9-2.6-2.7c-0.6-0.9-1.3-2-2-3.3c-0.6-1.4-1-2.8-1.3-4.2c-0.2-0.8-0.1-1.6-0.2-2.3C48.2,257.5,48.3,256.8,48.4,256.1z"/>
</g>
</svg>
