<?xml version="1.0" encoding="utf-8"?>
<!-- Generator: Adobe Illustrator 19.0.1, SVG Export Plug-In . SVG Version: 6.00 Build 0)  -->
<!DOCTYPE svg PUBLIC "-//W3C//DTD SVG 1.1//EN" "http://www.w3.org/Graphics/SVG/1.1/DTD/svg11.dtd">
<svg version="1.1" id="Layer_1" xmlns="http://www.w3.org/2000/svg" xmlns:xlink="http://www.w3.org/1999/xlink" x="0px" y="0px"
	 viewBox="-5 0 250 138" enable-background="new -5 0 250 138" xml:space="preserve">
<text transform="matrix(1 0 0 1 258.3614 9.6471)" fill="#078DD2" font-family="'MyriadPro-Regular'" font-size="12px">#078dd2</text>
<g>
	<path fill="#078DD2" d="M-373,40.2c6.1,0,11.5-3.3,14.3-8.3h2.6c9.1,0,8,9.5,8,9.5v7.2h16.6V32.1c0-9.1-7.4-16.6-16.6-16.6
		l-10.6-0.2c-1.5-2.5-3.5-4.6-6.1-6.1V-1.2h0.1h8.4c4.6,0,8.3-3.7,8.3-8.3s-3.7-8.3-8.3-8.3h-33.2c-4.6,0-8.3,3.7-8.3,8.3
		s3.7,8.3,8.3,8.3h8.3V9.3c-2.5,1.5-4.6,3.5-6.1,6.1h-27.2V32h27.2C-384.5,36.9-379.1,40.2-373,40.2z"/>
	<path fill="#078DD2" d="M-323.2,48.6c0,6.2,3.4,11.5,8.3,14.4v27.1c0,4.6-3.8,8.3-8.3,8.3c-4.6,0-8.3-3.7-8.3-8.3l0,0l0.1-3.6
		c0-13.2-6.9-21.3-23.4-21.3l-9.8,0.1V57c-6.1,0-11.5,3.4-14.4,8.3h-4.5l-30.9-0.1v16.4h35.4c2.9,5.3,8.2,8.6,14.4,8.6v-8.6h8.4
		h-0.1c4.6,0,8.3,3.8,8.3,8.3v0.2c0,13.8,11.1,24.9,24.9,24.9c13.8,0,24.9-11.1,24.9-24.9V62.9c5-2.9,8.3-8.2,8.3-14.4h-33.3V48.6z"
		/>
</g>
<g>
	<path fill="#078DD2" d="M650.2,67.6c6.1,0,11.5-3.3,14.3-8.3h2.6c9.1,0,8,9.5,8,9.5V76h16.6V59.5c0-9.1-7.4-16.6-16.6-16.6
		l-10.6-0.2c-1.5-2.5-3.5-4.6-6.1-6.1V26.2h0.1h8.4c4.6,0,8.3-3.7,8.3-8.3s-3.7-8.3-8.3-8.3h-33.2c-4.6,0-8.3,3.7-8.3,8.3
		s3.7,8.3,8.3,8.3h8.3v10.5c-2.5,1.5-4.6,3.5-6.1,6.1h-27.2v16.6h27.2C638.7,64.3,644.1,67.6,650.2,67.6z"/>
	<path fill="#078DD2" d="M700,76c0,6.2,3.4,11.5,8.3,14.4v27.1c0,4.6-3.8,8.3-8.3,8.3c-4.6,0-8.3-3.7-8.3-8.3l0,0l0.1-3.6
		c0-13.2-6.9-21.3-23.4-21.3l-9.8,0.1v-8.3c-6.1,0-11.5,3.4-14.4,8.3h-4.5l-30.9-0.1V109h35.4c2.9,5.3,8.2,8.6,14.4,8.6V109h8.4
		h-0.1c4.6,0,8.3,3.8,8.3,8.3v0.2c0,13.8,11.1,24.9,24.9,24.9c13.8,0,24.9-11.1,24.9-24.9V90.3c5-2.9,8.3-8.2,8.3-14.4H700V76z"/>
</g>
<g>
	<g>
		<path fill="#078DD2" d="M105,36H84.5V15.8h5.7V4.6H52.8v11.2h5.7v31.1c0,4.2,1.5,7.7,4.4,10.5c2.9,2.8,6.4,4.2,10.4,4.2H105v5.5
			h11.2V30.5H105V36z"/>
		<path fill="#078DD2" d="M181.4,81.8V50.7c0-4.2-1.5-7.7-4.4-10.5c-2.9-2.8-6.4-4.2-10.4-4.2H135v-5.5h-11.2v36.6H135v-5.5h20.5
			v20.2h-5.7v10.9h37.4V81.8H181.4z"/>
		<path fill="#078DD2" d="M178.7,123.3c0-1.6-0.9-4.2-2.6-7.8c-1.7-3.5-3.5-6.7-5.2-9.4l-2.6-4.1c-6.7,10.4-10.1,17.5-10.1,21.3
			c0,2.7,1,5.1,3,7.1c2,2,4.4,3,7.2,3c2.8,0,5.2-1,7.2-3S178.7,126.1,178.7,123.3z"/>
	</g>
</g>
</svg>
