<?xml version="1.0" encoding="utf-8"?>
<!-- Generator: Adobe Illustrator 19.0.1, SVG Export Plug-In . SVG Version: 6.00 Build 0)  -->
<!DOCTYPE svg PUBLIC "-//W3C//DTD SVG 1.1//EN" "http://www.w3.org/Graphics/SVG/1.1/DTD/svg11.dtd">
<svg version="1.1" id="Layer_1" xmlns="http://www.w3.org/2000/svg" xmlns:xlink="http://www.w3.org/1999/xlink" x="0px" y="0px"
	 viewBox="0 0 250 138" enable-background="new 0 0 250 138" xml:space="preserve">
<text transform="matrix(1 0 0 1 263.3614 9.6471)" fill="#078DD2" font-family="'MyriadPro-Regular'" font-size="12px">#078dd2</text>
<g>
	<path fill="#078DD2" d="M104.2,60.6c6.1,0,11.5-3.3,14.3-8.3h2.6c9.1,0,8,9.5,8,9.5V69h16.6V52.5c0-9.1-7.4-16.6-16.6-16.6
		l-10.6-0.2c-1.5-2.5-3.5-4.6-6.1-6.1V19.2h0.1l8.4,0c4.6,0,8.3-3.7,8.3-8.3c0-4.6-3.7-8.3-8.3-8.3H87.7c-4.6,0-8.3,3.7-8.3,8.3
		c0,4.6,3.7,8.3,8.3,8.3l8.3,0v10.5c-2.5,1.5-4.6,3.5-6.1,6.1H62.7v16.6h27.2C92.7,57.3,98.1,60.6,104.2,60.6z"/>
	<path fill="#078DD2" d="M154,69c0,6.2,3.4,11.5,8.3,14.4v27.1c0,4.6-3.8,8.3-8.3,8.3c-4.6,0-8.3-3.7-8.3-8.3h0l0.1-3.6
		c0-13.2-6.9-21.3-23.4-21.3l-9.8,0.1v-8.3c-6.1,0-11.5,3.4-14.4,8.3l-4.5,0l-30.9-0.1v16.4l35.4,0c2.9,5.3,8.2,8.6,14.4,8.6V102
		h8.4l-0.1,0c4.6,0,8.3,3.8,8.3,8.3v0.2c0,13.8,11.1,24.9,24.9,24.9c13.8,0,24.9-11.1,24.9-24.9l0-27.2c5-2.9,8.3-8.2,8.3-14.4H154z
		"/>
</g>
</svg>
